<svg
    height="300px"
    width="300px"
    fill="#b3bac7"
    xmlns="http://www.w3.org/2000/svg"
    xmlns:xlink="http://www.w3.org/1999/xlink"
    version="1.1"
    x="0px"
    y="0px"
    viewBox="0 0 64 64"
    style="enable-background:new 0 0 64 64;"
    xml:space="preserve"
>
    <g>
        <path
            d="M53,57V40c0-2.757-2.243-5-5-5h-2v-2.842c0-1.229-0.343-2.4-0.927-3.431c1.315-0.317,2.313-0.803,2.374-0.833l1.397-0.699   l-1.22-0.977C43.08,22.584,43,17.053,43,16.997l-0.051,0C42.979,16.668,43,16.337,43,16V9c0-2.757-2.243-5-5-5h-0.465L37.02,3.227   C36.09,1.832,34.535,1,32.859,1H30c-4.963,0-9,4.037-9,9v6c0,0.338,0.021,0.67,0.051,1H21c0,0.056-0.053,5.562-4.625,9.219   l-1.22,0.977l1.397,0.699c0.061,0.03,1.059,0.515,2.374,0.833C18.343,29.758,18,30.929,18,32.158V35h-2c-2.757,0-5,2.243-5,5v17H6   v3c0,1.654,1.346,3,3,3h46c1.654,0,3-1.346,3-3v-3H53z M37.414,35l1.803-1.803l-0.807-1.613l2.912-0.971l-1.376-3.44l0.81,0.304   C42.696,28.204,44,30.085,44,32.158V35H37.414z M29.414,35l-2.197-2.197l1.193-2.387l-3.088-1.029l1.266-3.164l0.698-0.262   L30.573,35H29.414z M41,16h-2.184c-0.414-1.161-1.514-2-2.816-2s-2.402,0.839-2.816,2h-2.369c-0.414-1.161-1.514-2-2.816-2   s-2.402,0.839-2.816,2H23v-1.382l1.336-0.668C25.579,13.328,26.971,13,28.36,13h3.823c1.387,0,2.729-0.406,3.883-1.176l0.82-0.547   c1.153,1.008,2.586,1.597,4.113,1.701V16z M37,17c0,0.552-0.448,1-1,1s-1-0.448-1-1s0.448-1,1-1S37,16.448,37,17z M29,17   c0,0.552-0.448,1-1,1s-1-0.448-1-1s0.448-1,1-1S29,16.448,29,17z M25.184,18c0.414,1.161,1.514,2,2.816,2s2.402-0.839,2.816-2   h2.369c0.414,1.161,1.514,2,2.816,2s2.402-0.839,2.816-2h1.953c-0.913,4.002-4.494,7-8.768,7s-7.855-2.998-8.768-7H25.184z    M34.298,26.754L32,33.075l-2.298-6.32C30.444,26.913,31.212,27,32,27S33.556,26.913,34.298,26.754z M36.714,25.961l0.698,0.262   l1.266,3.164l-3.088,1.029l1.193,2.387L34.586,35h-1.159L36.714,25.961z M45.122,26.649c-0.441,0.133-0.949,0.25-1.471,0.309   c-0.635-0.571-1.366-1.045-2.193-1.355l-2.517-0.944l-0.012-0.031l-0.034,0.013l-0.075-0.028c1.209-0.959,2.212-2.165,2.932-3.544   C42.326,22.799,43.337,24.831,45.122,26.649z M30,3h2.859c1.005,0,1.938,0.499,2.496,1.336L36.465,6H38c1.654,0,3,1.346,3,3v1.953   c-1.151-0.111-2.223-0.59-3.051-1.417l-0.822-0.822l-2.17,1.447C34.133,10.71,33.174,11,32.184,11H28.36   c-1.698,0-3.399,0.401-4.919,1.161L23,12.382V10C23,6.141,26.141,3,30,3z M22.248,21.07c0.72,1.379,1.722,2.584,2.932,3.544   l-0.075,0.028l-0.034-0.013l-0.012,0.031l-2.516,0.944c-0.827,0.31-1.558,0.784-2.194,1.355c-0.522-0.059-1.031-0.176-1.471-0.309   C20.663,24.831,21.674,22.799,22.248,21.07z M20,32.158c0-2.073,1.304-3.954,3.245-4.682l0.808-0.303l-1.376,3.44l2.912,0.971   l-0.807,1.613L26.586,35H20V32.158z M13,40c0-1.654,1.346-3,3-3h32c1.654,0,3,1.346,3,3v17H13V40z M56,60c0,0.552-0.448,1-1,1H9   c-0.552,0-1-0.448-1-1v-1h48V60z"
        ></path>
        <path
            d="M32,43c-2.757,0-5,2.243-5,5s2.243,5,5,5s5-2.243,5-5S34.757,43,32,43z M32,51c-1.654,0-3-1.346-3-3s1.346-3,3-3   s3,1.346,3,3S33.654,51,32,51z"
        ></path>
    </g>
</svg>
