<svg
    height="300px"
    width="300px"
    fill="#3e4246"
    xmlns="http://www.w3.org/2000/svg"
    viewBox="0 0 24 24"
    x="0px"
    y="0px"
>
    <path
        fill-rule="evenodd"
        d="M175,525.938106 L175,525.938106 L175,528 L173,528 L173,525.418483 C170.06817,524.231708 168,521.357378 168,518 L168,517 L170,517 L170,509 C170,506.238576 172.238576,504 175,504 C177.761424,504 180,506.238576 180,509 L182,509 L182,512 L176,512 L176,509 L178,509 C178,507.343146 176.656854,506 175,506 C173.343146,506 172,507.343146 172,509 L172,517 L192,517 L192,518 C192,521.357378 189.93183,524.231708 187,525.418483 L187,528 L185,528 L185,525.938106 C184.672406,525.978957 184.33866,526 184,526 L176,526 C175.66134,526 175.327594,525.978957 175,525.938106 Z M176,524 L184,524 C186.972996,524 189.440963,521.837713 189.917042,519 L170.082958,519 C170.559037,521.837713 173.027004,524 176,524 Z"
        transform="translate(-168 -504)"
    ></path>
</svg>
