<?xml version="1.0" encoding="utf-8"?>
<!-- Generator: Adobe Illustrator 22.1.0, SVG Export Plug-In . SVG Version: 6.00 Build 0)  -->
<svg version="1.1" id="Layer_1" xmlns="http://www.w3.org/2000/svg" xmlns:xlink="http://www.w3.org/1999/xlink" x="0px" y="0px"
	 viewBox="0 0 300 300" style="enable-background:new 0 0 300 300;" xml:space="preserve">
<style type="text/css">
	.st0{fill:#3E4246;}
</style>
<path class="st0" d="M78.1,276.5v-0.6l-0.3,0.3L78.1,276.5z M82.9,281.2l7.2,7.2l-7.7,7.7l-19.9-19.9l19.9-19.9l7.7,7.7l-4.8,4.8
	h150.8l-4.8-4.8l7.7-7.7l19.9,19.9l-19.9,19.9l-7.7-7.7l7.2-7.2H82.9z M50,234.8l6.1-6.1l7.7,7.7l-19.9,19.9l-19.9-19.9l7.7-7.7l6,6
	V34.1l-6,6l-7.7-7.7l19.9-19.9l19.9,19.9L56,40.1l-6-6V234.8z M237.5,48.2v153.6c0,12.8-10.4,23.2-23.2,23.2H110.7
	c-12.8,0-23.2-10.4-23.2-23.2V48.2c0-12.8,10.4-23.2,23.2-23.2h103.6C227.1,25,237.5,35.4,237.5,48.2z M212.5,50h-100v150h100V50z"
	/>
</svg>
