<svg
    height="300px"
    width="300px"
    fill="#3e4246"
    xmlns="http://www.w3.org/2000/svg"
    data-name="Layer 1"
    viewBox="0 0 32 32"
    x="0px"
    y="0px"
>
    <title>Bed</title>
    <path
        d="M30,15.28V10a6,6,0,0,0-6-6H8a6,6,0,0,0-6,6v5.28A2,2,0,0,0,1,17v5a3,3,0,0,0,2,2.82V27a1,1,0,0,0,2,0V25H27v2a1,1,0,0,0,2,0V24.82A3,3,0,0,0,31,22V17A2,2,0,0,0,30,15.28ZM8,6H24a4,4,0,0,1,4,4v5H27V14a3,3,0,0,0-3-3H20a3,3,0,0,0-3,3v1H15V14a3,3,0,0,0-3-3H8a3,3,0,0,0-3,3v1H4V10A4,4,0,0,1,8,6Zm17,9H19V14a1,1,0,0,1,1-1h4a1,1,0,0,1,1,1ZM13,15H7V14a1,1,0,0,1,1-1h4a1,1,0,0,1,1,1Zm16,7a1,1,0,0,1-1,1H4a1,1,0,0,1-1-1V17H29Z"
    ></path>
</svg>
