<svg
    height="300px"
    width="300px"
    fill="#3e4246"
    xmlns="http://www.w3.org/2000/svg"
    viewBox="0 0 24 24"
    x="0px"
    y="0px"
>
    <path
        fill-rule="evenodd"
        d="M6.25,22.1178511 L6.25,22.070192 L6.22617043,22.0940216 L6.25,22.1178511 Z M6.63214887,22.5 L7.20710678,23.0749579 L6.59402156,23.6880431 L5,22.0940216 L6.59402156,20.5 L7.20710678,21.1130852 L6.820192,21.5 L18.8869148,21.5 L18.5,21.1130852 L19.1130852,20.5 L20.7071068,22.0940216 L19.1130852,23.6880431 L18.5,23.0749579 L19.0749579,22.5 L6.63214887,22.5 Z M4,18.7849572 L4.48495794,18.2999992 L5.09804315,18.9130845 L3.50402159,20.507106 L1.91000003,18.9130845 L2.52308524,18.2999992 L3,18.776914 L3,2.72617043 L2.51906365,3.20710678 L1.90597844,2.59402156 L3.5,1 L5.09402156,2.59402156 L4.48093635,3.20710678 L4,2.72617043 L4,18.7849572 Z M19,2 L19,18 L7,18 L7,2 L19,2 Z M17,4 L9,4 L9,16 L17,16 L17,4 Z"
    ></path>
</svg>
