<?xml version="1.0" encoding="utf-8"?>
<!-- Generator: Adobe Illustrator 22.1.0, SVG Export Plug-In . SVG Version: 6.00 Build 0)  -->
<svg version="1.1"
	 id="Layer_1" xmlns:cc="http://creativecommons.org/ns#" xmlns:dc="http://purl.org/dc/elements/1.1/" xmlns:inkscape="http://www.inkscape.org/namespaces/inkscape" xmlns:rdf="http://www.w3.org/1999/02/22-rdf-syntax-ns#" xmlns:sodipodi="http://sodipodi.sourceforge.net/DTD/sodipodi-0.dtd" xmlns:svg="http://www.w3.org/2000/svg"
	 xmlns="http://www.w3.org/2000/svg" xmlns:xlink="http://www.w3.org/1999/xlink" x="0px" y="0px" viewBox="0 0 300 300"
	 style="enable-background:new 0 0 300 300;" xml:space="preserve">
<style type="text/css">
	.st0{fill:#3E4246;}
</style>
<g>
	<path class="st0" d="M235.9,249.2l19.9,20l-19.9,19.9l-7.7-7.7l7.2-7.2H79.9l7.2,7.2l-7.7,7.7l-19.9-19.9l19.9-20l7.7,7.7l-4.8,4.9
		h150.8l-4.9-4.9L235.9,249.2z M44,237.8V37.1l6,6l7.7-7.7L37.8,15.5l-20,19.9l7.7,7.7l6-6v200.6l-6-6l-7.6,7.7l19.9,19.9l19.9-19.9
		l-7.6-7.7L44,237.8z"/>
	<path class="st0" d="M278,127.3L169.1,51.5c0,0,0,0,0,0c-1.5-1.3-3.3-2-5.2-2.2c-0.6-0.2-1.1-0.3-1.8-0.3c-1.2,0-2.4,0.3-3.6,1.1
		l-5.4,4.2L132,70V54c0-0.8,0-1.5-0.1-2.2V51c0-2.8-2.2-5-5-5H94.4c-2.8,0-5,2.2-5,5v13.7h0l0.2,36.7l3.6-2.7v0l-42.3,31.3
		c-4.2,3.1-5.1,8.9-2,13.1c3.1,4.2,8.9,5.1,13.1,2l20.1-14.9v1.4v87.8c0,0.6,0.1,1.2,0.3,1.8v2.4c0,5,4,9,9,9h39.7c5,0,9-4,9-8.9
		V214h-0.3v-22c0-12.3,9.7-22,22-22s22,9.7,22,22v27.5c0,0.5,0.1,1,0.2,1.4v2.8c0,5,4,9,9,9h39.8c4.9,0,8.9-4,8.9-8.9V214h0.1v-89
		l25.4,17.7c4.3,3,10.1,1.9,13.1-2.3C283.3,136.1,282.3,130.3,278,127.3z M104.3,90.5V64.7h11v14.5v3.2L104.3,90.5L104.3,90.5z
		 M223.1,214H198v-30c0-18.2-17.8-33-36-33s-37,14.8-37,33v30h-23.8v-97.9l61.9-45.9l60,41.7V214z"/>
</g>
</svg>
