<svg
    height="300px"
    width="300px"
    fill="#3e4246"
    xmlns="http://www.w3.org/2000/svg"
    xmlns:xlink="http://www.w3.org/1999/xlink"
    version="1.1"
    x="0px"
    y="0px"
    viewBox="0 0 20 20"
    enable-background="new 0 0 20 20"
    xml:space="preserve"
>
    <polygon
        fill="#000000"
        points="20,6 20,0 14,0 14,2 16.6,2 10,8.6 3.4,2 6,2 6,0 0,0 0,6 2,6 2,3.4 8.6,10 2,16.6 2,14 0,14 0,20   6,20 6,18 3.4,18 10,11.4 16.6,18 14,18 14,20 20,20 20,14 18,14 18,16.6 11.4,10 18,3.4 18,6 "
    ></polygon>
</svg>
